<?xml version="1.0" standalone="no"?>
<svg xmlns="http://www.w3.org/2000/svg" viewBox="0 0 139.641 36" width="139.641" height="36"><g fill="#deab26" color="#deab26" transform="translate(0 4) scale(0.5384616)"><svg width="52.0" height="52.0" x="0.0" y="0.0" viewBox="0 0 52 52"><path fill="currentColor" fill-rule="evenodd" d="M18.22 33.35s9.278 9.366 25.673 11.515a26.024 26.024 0 0 1-4.652 3.512l-.054.034a25.875 25.875 0 0 1-13.82 3.58 26.054 26.054 0 0 1-4.701-.545c-.167-.035-.333-.078-.5-.116-2.487-6.099-2.5-12.173-2.247-15.465.12-1.574.301-2.515.301-2.515zM15.745 22.9S12.273 35.616 18.61 50.89a26.12 26.12 0 0 1-5.368-2.273l-.055-.03A25.865 25.865 0 0 1 3.175 38.408a26.147 26.147 0 0 1-1.878-4.343c-.054-.163-.099-.328-.15-.492 4.038-5.202 9.293-8.25 12.27-9.678 1.423-.683 2.328-.997 2.328-.997zm35.536-2.96c.445 1.86.695 3.795.716 5.786l.002.064a25.868 25.868 0 0 1-3.81 13.76 26.134 26.134 0 0 1-2.821 3.797c-.115.127-.235.249-.352.374-6.524-.895-11.79-3.921-14.516-5.786-1.302-.892-2.026-1.517-2.026-1.517S41.223 33.065 51.28 19.94zM6.983 8.25c6.525.895 11.792 3.922 14.517 5.786 1.302.89 2.026 1.517 2.026 1.517S10.778 18.904.718 32.028a26.047 26.047 0 0 1-.715-5.784L0 26.181A25.871 25.871 0 0 1 3.81 12.42a26.18 26.18 0 0 1 2.822-3.797c.114-.128.235-.25.351-.375zM33.39 1.07a26.021 26.021 0 0 1 5.368 2.272l.055.03a25.864 25.864 0 0 1 10.012 10.18 25.98 25.98 0 0 1 1.878 4.342c.053.163.098.327.149.492-4.038 5.203-9.292 8.25-12.27 9.678-1.422.682-2.327.997-2.327.997s3.471-12.719-2.865-27.991zM26.134 0l.503.007c1.582.04 3.157.221 4.7.545.167.036.333.079.5.117 2.487 6.098 2.499 12.172 2.247 15.465-.12 1.573-.301 2.515-.301 2.515S24.506 9.283 8.11 7.135a26.1 26.1 0 0 1 4.651-3.513c.019-.01.036-.023.055-.033A25.877 25.877 0 0 1 26.637.009z"></path></svg></g><path fill="#000000" fill-rule="nonzero" d="M0 18.20L0 18.20Q0 17.55 0.08 17.01Q0.15 16.46 0.30 15.83L0.30 15.83L2.66 15.83L2.66 16.80Q2.66 17.61 2.76 18.23Q2.86 18.86 3.09 19.28Q3.32 19.71 3.70 19.93Q4.08 20.14 4.63 20.14L4.63 20.14Q5.50 20.14 5.95 19.67Q6.41 19.20 6.41 18.28L6.41 18.28Q6.41 17.81 6.35 17.42Q6.28 17.03 6.12 16.64Q5.96 16.25 5.70 15.83Q5.43 15.40 5.00 14.87L5.00 14.87L1.84 11.11Q1.00 10.03 0.54 8.94Q0.08 7.84 0.08 6.60L0.08 6.60Q0.08 5.60 0.39 4.77Q0.70 3.94 1.29 3.33Q1.88 2.73 2.74 2.40Q3.60 2.06 4.69 2.06L4.69 2.06Q6.01 2.06 6.90 2.44Q7.78 2.81 8.31 3.42Q8.84 4.03 9.05 4.79Q9.27 5.54 9.27 6.30L9.27 6.30Q9.27 6.95 9.17 7.49Q9.07 8.04 8.94 8.70L8.94 8.70L6.60 8.70L6.60 7.75Q6.60 6.15 6.14 5.30Q5.68 4.45 4.65 4.45L4.65 4.45Q3.80 4.45 3.38 4.93Q2.95 5.40 2.95 6.20L2.95 6.20Q2.95 6.62 3.02 6.96Q3.08 7.30 3.21 7.59Q3.33 7.88 3.50 8.14Q3.68 8.41 3.90 8.71L3.90 8.71L7.43 12.97Q8.39 14.23 8.91 15.38Q9.42 16.54 9.42 17.82L9.42 17.82Q9.42 18.89 9.09 19.75Q8.75 20.60 8.13 21.20Q7.51 21.80 6.63 22.12Q5.75 22.44 4.65 22.44L4.65 22.44Q3.29 22.44 2.40 22.08Q1.50 21.71 0.97 21.12Q0.43 20.52 0.22 19.76Q0 19.00 0 18.20ZM15.86 22.43L15.86 22.43Q15.34 22.43 14.81 22.35Q14.27 22.27 13.78 22.01Q13.28 21.75 12.84 21.27Q12.40 20.79 12.07 20.00Q11.74 19.22 11.55 18.07Q11.37 16.92 11.37 15.33L11.37 15.33L11.37 12.80Q11.37 11.23 11.56 10.11Q11.75 8.99 12.09 8.23Q12.42 7.46 12.87 7.01Q13.31 6.56 13.81 6.32Q14.31 6.08 14.84 6.01Q15.36 5.93 15.87 5.93L15.87 5.93Q16.35 5.93 16.86 6Q17.38 6.07 17.87 6.30Q18.36 6.53 18.80 6.98Q19.24 7.43 19.58 8.19Q19.91 8.95 20.10 10.08Q20.30 11.21 20.30 12.80L20.30 12.80L20.30 15.33Q20.30 16.90 20.10 18.04Q19.90 19.17 19.56 19.96Q19.22 20.74 18.77 21.23Q18.33 21.71 17.84 21.98Q17.34 22.25 16.83 22.34Q16.32 22.43 15.86 22.43ZM15.88 20.14L15.88 20.14Q16.28 20.14 16.55 19.94Q16.83 19.73 17.00 19.27Q17.17 18.80 17.24 18.03Q17.32 17.26 17.32 16.13L17.32 16.13L17.32 12.15Q17.32 11.02 17.24 10.24Q17.17 9.47 17.00 8.99Q16.83 8.52 16.55 8.31Q16.28 8.10 15.88 8.10L15.88 8.10Q15.46 8.10 15.17 8.31Q14.88 8.52 14.70 8.99Q14.51 9.47 14.43 10.24Q14.34 11.02 14.34 12.15L14.34 12.15L14.34 16.13Q14.34 17.26 14.43 18.03Q14.51 18.80 14.70 19.27Q14.88 19.73 15.17 19.94Q15.46 20.14 15.88 20.14ZM26.68 22.43L26.68 22.43Q24.64 22.43 23.57 20.75Q22.50 19.08 22.50 15.64L22.50 15.64L22.50 12.60Q22.50 11.06 22.72 9.97Q22.95 8.87 23.31 8.13Q23.68 7.38 24.16 6.95Q24.63 6.52 25.14 6.29Q25.64 6.06 26.13 5.99Q26.63 5.93 27.04 5.93L27.04 5.93Q27.86 5.93 28.54 6.15Q29.21 6.36 29.71 6.80Q30.20 7.24 30.47 7.91Q30.74 8.58 30.74 9.48L30.74 9.48Q30.74 10.04 30.69 10.45Q30.63 10.85 30.54 11.23L30.54 11.23L28.17 11.23L28.17 10.69Q28.17 9.47 27.88 8.78Q27.60 8.10 26.94 8.10L26.94 8.10Q26.58 8.10 26.31 8.27Q26.04 8.44 25.86 8.85Q25.68 9.26 25.59 9.95Q25.50 10.64 25.50 11.68L25.50 11.68L25.50 16.27Q25.50 17.32 25.57 18.06Q25.64 18.80 25.82 19.26Q25.99 19.72 26.29 19.93Q26.58 20.14 27.01 20.14L27.01 20.14Q27.23 20.14 27.45 20.03Q27.66 19.92 27.81 19.66Q27.97 19.41 28.07 18.98Q28.17 18.55 28.17 17.92L28.17 17.92L28.17 17.41L30.73 17.41L30.73 18.04Q30.73 20.33 29.71 21.38Q28.70 22.43 26.68 22.43ZM34.71 3.81L34.71 3.81Q33.89 3.81 33.42 3.32Q32.94 2.82 32.94 1.88L32.94 1.88Q32.94 1.35 33.06 0.99Q33.19 0.63 33.42 0.42Q33.64 0.20 33.97 0.10Q34.30 0 34.72 0L34.72 0Q35.60 0 36.06 0.45Q36.52 0.89 36.52 1.88L36.52 1.88Q36.52 2.79 36.05 3.30Q35.59 3.81 34.71 3.81ZM33.18 22.25L33.18 6.12L36.14 6.12L36.14 22.25L33.18 22.25ZM41.46 22.43L41.46 22.43Q40.71 22.43 40.13 22.13Q39.55 21.83 39.15 21.32Q38.75 20.80 38.55 20.09Q38.34 19.38 38.34 18.55L38.34 18.55Q38.34 17.55 38.59 16.78Q38.84 16.01 39.31 15.39Q39.79 14.77 40.49 14.26Q41.19 13.75 42.12 13.29L42.12 13.29Q42.56 13.07 43.12 12.84Q43.68 12.61 44.11 12.45L44.11 12.45L44.11 10.31Q44.11 9.84 44.07 9.44Q44.04 9.04 43.90 8.74Q43.77 8.44 43.50 8.27Q43.23 8.10 42.76 8.10L42.76 8.10Q42.45 8.10 42.15 8.21Q41.85 8.33 41.62 8.61Q41.39 8.89 41.26 9.36Q41.12 9.83 41.12 10.52L41.12 10.52L41.12 11.23L38.86 11.23Q38.75 10.77 38.70 10.39Q38.65 10.01 38.65 9.63L38.65 9.63Q38.65 8.73 38.96 8.04Q39.27 7.35 39.83 6.88Q40.38 6.41 41.16 6.17Q41.93 5.93 42.86 5.93L42.86 5.93Q44.06 5.93 44.86 6.19Q45.66 6.46 46.13 6.98Q46.61 7.51 46.80 8.31Q46.99 9.11 46.99 10.17L46.99 10.17L46.99 22.25L44.79 22.25L44.58 20.87Q44.10 21.56 43.29 22.00Q42.49 22.43 41.46 22.43ZM42.77 20.14L42.77 20.14Q43.15 20.14 43.51 19.95Q43.86 19.76 44.11 19.48L44.11 19.48L44.11 14.43Q43.88 14.52 43.58 14.65Q43.29 14.78 42.95 14.99L42.95 14.99Q42.63 15.19 42.33 15.47Q42.02 15.75 41.78 16.14Q41.54 16.52 41.40 17.01Q41.25 17.50 41.25 18.09L41.25 18.09Q41.25 19.02 41.61 19.58Q41.98 20.14 42.77 20.14ZM50.11 22.25L50.11 0.94L53.07 0.94L53.07 22.25L50.11 22.25ZM61.49 22.25L61.49 2.24L65.45 2.24L67.37 9.98Q67.68 11.27 67.85 12.44Q68.03 13.61 68.19 14.64L68.19 14.64L68.29 14.64Q68.45 13.61 68.63 12.44Q68.80 11.27 69.11 9.98L69.11 9.98L71.09 2.24L74.96 2.24L74.96 22.25L72.13 22.25L72.13 15.63Q72.13 14.11 72.16 12.70Q72.19 11.30 72.23 10.12Q72.28 8.94 72.34 8.04Q72.40 7.14 72.45 6.61L72.45 6.61L72.22 6.61L69.20 19.68L67.28 19.68L64.23 6.61L64.01 6.61Q64.05 7.14 64.11 8.04Q64.17 8.94 64.22 10.12Q64.27 11.30 64.29 12.70Q64.32 14.11 64.32 15.63L64.32 15.63L64.32 22.25L61.49 22.25ZM79.78 3.81L79.78 3.81Q78.96 3.81 78.49 3.32Q78.01 2.82 78.01 1.88L78.01 1.88Q78.01 1.35 78.13 0.99Q78.26 0.63 78.49 0.42Q78.71 0.20 79.04 0.10Q79.37 0 79.79 0L79.79 0Q80.67 0 81.13 0.45Q81.59 0.89 81.59 1.88L81.59 1.88Q81.59 2.79 81.12 3.30Q80.66 3.81 79.78 3.81ZM78.25 22.25L78.25 6.12L81.21 6.12L81.21 22.25L78.25 22.25ZM87.40 22.44L87.40 22.44Q87.13 22.44 86.77 22.39Q86.40 22.34 86.02 22.15Q85.63 21.96 85.25 21.59Q84.88 21.21 84.59 20.56Q84.29 19.91 84.11 18.95Q83.93 17.99 83.93 16.62L83.93 16.62L83.93 11.50Q83.93 10.14 84.12 9.20Q84.32 8.26 84.63 7.65Q84.95 7.03 85.34 6.69Q85.73 6.34 86.13 6.18Q86.52 6.01 86.88 5.98Q87.23 5.94 87.47 5.94L87.47 5.94Q87.90 5.94 88.29 6.06Q88.68 6.18 88.99 6.37Q89.31 6.56 89.55 6.80Q89.80 7.04 89.96 7.29L89.96 7.29L89.98 7.28L89.88 5.24L89.88 0.94L92.84 0.94L92.84 22.25L90.53 22.25L90.27 20.75Q90.07 21.07 89.81 21.38Q89.55 21.68 89.20 21.92Q88.85 22.16 88.41 22.30Q87.96 22.44 87.40 22.44ZM88.41 20.14L88.41 20.14Q88.70 20.14 88.93 20.04Q89.16 19.95 89.34 19.79Q89.52 19.63 89.65 19.42Q89.79 19.21 89.88 18.98L89.88 18.98L89.88 9.28Q89.66 8.79 89.29 8.44Q88.92 8.10 88.39 8.10L88.39 8.10Q88.07 8.10 87.80 8.21Q87.53 8.33 87.33 8.65Q87.13 8.98 87.02 9.54Q86.91 10.11 86.91 11.02L86.91 11.02L86.91 17.20Q86.91 18.11 87.02 18.68Q87.13 19.25 87.33 19.58Q87.53 19.90 87.80 20.02Q88.08 20.14 88.41 20.14ZM98.11 22.43L98.11 22.43Q97.36 22.43 96.78 22.13Q96.20 21.83 95.80 21.32Q95.40 20.80 95.20 20.09Q94.99 19.38 94.99 18.55L94.99 18.55Q94.99 17.55 95.24 16.78Q95.48 16.01 95.96 15.39Q96.43 14.77 97.14 14.26Q97.84 13.75 98.77 13.29L98.77 13.29Q99.21 13.07 99.77 12.84Q100.32 12.61 100.76 12.45L100.76 12.45L100.76 10.31Q100.76 9.84 100.72 9.44Q100.69 9.04 100.55 8.74Q100.42 8.44 100.15 8.27Q99.88 8.10 99.41 8.10L99.41 8.10Q99.09 8.10 98.79 8.21Q98.50 8.33 98.27 8.61Q98.04 8.89 97.90 9.36Q97.77 9.83 97.77 10.52L97.77 10.52L97.77 11.23L95.51 11.23Q95.40 10.77 95.35 10.39Q95.30 10.01 95.30 9.63L95.30 9.63Q95.30 8.73 95.61 8.04Q95.92 7.35 96.47 6.88Q97.03 6.41 97.80 6.17Q98.58 5.93 99.50 5.93L99.50 5.93Q100.71 5.93 101.51 6.19Q102.30 6.46 102.78 6.98Q103.25 7.51 103.45 8.31Q103.64 9.11 103.64 10.17L103.64 10.17L103.64 22.25L101.44 22.25L101.23 20.87Q100.75 21.56 99.94 22.00Q99.14 22.43 98.11 22.43ZM99.42 20.14L99.42 20.14Q99.80 20.14 100.15 19.95Q100.51 19.76 100.76 19.48L100.76 19.48L100.76 14.43Q100.52 14.52 100.23 14.65Q99.94 14.78 99.60 14.99L99.60 14.99Q99.28 15.19 98.98 15.47Q98.67 15.75 98.43 16.14Q98.19 16.52 98.04 17.01Q97.90 17.50 97.90 18.09L97.90 18.09Q97.90 19.02 98.26 19.58Q98.63 20.14 99.42 20.14Z" transform="translate(36, 6.78)"></path></svg>